# xmcd
#
# Track frame offsets:
#	150
#	7394
#	14792
#	25139
#	32856
#	39060
#	47270
#	57547
#	68418
#	77100
#	86999
#	95452
#	100955
#	112092
#	120000
#	131125
#	143436
#	152118
#	161992
#	171861
#	183907
#	189929
#	197837
#	207160
#	214293
#	221743
#	231694
#	238754
#	244982
#	255006
#
# Disc length: 3528 seconds
#
# Revision: 0
# Processed by: cddbd v1.5.2PL0 Copyright (c) Steve Scherf et al.
# Submitted via: EZCDAudioConverter 7.1.2.1
#
DISCID=ac0dc61e
DTITLE=Alvis Massengale - Mississippi Fiddle Music FRC724
DYEAR=1900
DGENRE=Old-Time Country
TTITLE0=Fisher’s Hornpipe
TTITLE1=Bilbo Rag
TTITLE2=Sebastapol
TTITLE3=Happy Hour Breakdown
TTITLE4=Little Princess Footsteps
TTITLE5=Going to the Wedding
TTITLE6=Bring Me a Bottle
TTITLE7=Goodnight Waltz
TTITLE8=Magnolia Waltz
TTITLE9=Monkey in the Dogcart
TTITLE10=The Old Hat
TTITLE11=Saturday Night Breakdown
TTITLE12=Interview
TTITLE13=Soldier's Joy
TTITLE14=Ragtime Annie
TTITLE15=I’ll Be All Smiles Tonight
TTITLE16=Leather Britches
TTITLE17=Over the Waves
TTITLE18=Make Me a Pallet
TTITLE19=Mississippi Sawyer
TTITLE20=Rickett’s Hornpipe
TTITLE21=Arkansas Traveler
TTITLE22=Sweet Bunch o’ Daisies
TTITLE23=Sweet Mama Every Night
TTITLE24=Faded Love
TTITLE25=Peekaboo Waltz
TTITLE26=Durang’s Hornpipe
TTITLE27=Chicken Reel
TTITLE28=Golden Slippers
TTITLE29=Turkey in the Straw
EXTD=
EXTT0=
EXTT1=
EXTT2=
EXTT3=
EXTT4=
EXTT5=
EXTT6=
EXTT7=
EXTT8=
EXTT9=
EXTT10=
EXTT11=
EXTT12=
EXTT13=
EXTT14=
EXTT15=
EXTT16=
EXTT17=
EXTT18=
EXTT19=
EXTT20=
EXTT21=
EXTT22=
EXTT23=
EXTT24=
EXTT25=
EXTT26=
EXTT27=
EXTT28=
EXTT29=
PLAYORDER=
